PathFileType  4	(X/Y/Z) C:\Users\antoi\Documents\MyRepositories\mobilecap\ResultsAnalysis
DataRate	CameraRate	NumFrames	NumMarkers	Units	OrigDataRate	OrigDataStartFrame	OrigNumFrames
100.0	100.0	6	51	mm	100.0	1	1336
Frame#	Time	r_knee			r_shank_antsup			r_ankle			r_calc			r_5meta			r_toe			L_knee			L_shank_antsup			L_ankle			L_calc			L_5meta			L_toe			r_sh2			r_sh3			r_sh4			L_sh2			L_sh3			r_thigh1			r_thigh2			r_thigh3			r_thigh4			r_thigh5			L_thigh1			L_thigh2			L_thigh3			L_thigh4			r.ASIS			r.PSIS			L.ASIS			L.PSIS			C7			R_Shoulder			L_Shoulder			R_Sternum			L_Sternum			R_humerus			R_elbow_med			R_elbow_lat			R_forearm			R_wrist_radius			R_wrist_ulna			L_humerus			L_elbow_med			L_elbow_lat			L_forearm			L_wrist_radius			L_wrist_ulna			R_HJC			L_HJC			R_HJC_reg			L_HJC_reg			
		X1	Y1	Z1	X2	Y2	Z2	X3	Y3	Z3	X4	Y4	Z4	X5	Y5	Z5	X6	Y6	Z6	X7	Y7	Z7	X8	Y8	Z8	X9	Y9	Z9	X10	Y10	Z10	X11	Y11	Z11	X12	Y12	Z12	X13	Y13	Z13	X14	Y14	Z14	X15	Y15	Z15	X16	Y16	Z16	X17	Y17	Z17	X18	Y18	Z18	X19	Y19	Z19	X20	Y20	Z20	X21	Y21	Z21	X22	Y22	Z22	X23	Y23	Z23	X24	Y24	Z24	X25	Y25	Z25	X26	Y26	Z26	X27	Y27	Z27	X28	Y28	Z28	X29	Y29	Z29	X30	Y30	Z30	X31	Y31	Z31	X32	Y32	Z32	X33	Y33	Z33	X34	Y34	Z34	X35	Y35	Z35	X36	Y36	Z36	X37	Y37	Z37	X38	Y38	Z38	X39	Y39	Z39	X40	Y40	Z40	X41	Y41	Z41	X42	Y42	Z42	X43	Y43	Z43	X44	Y44	Z44	X45	Y45	Z45	X46	Y46	Z46	X47	Y47	Z47	X48	Y48	Z48	X49	Y49	Z49	X50	Y50	Z50	X51	Y51	Z51	

1	0.00000000	-217.18004	502.30834	-431.68339	-190.91643	436.04342	-413.77361	-324.54889	105.41311	-436.08011	-389.68301	53.09985	-480.32865	-187.45369	37.69203	-398.32555	-153.02246	63.03994	-458.51625	-202.83337	498.40338	-797.73913	-184.67643	399.37296	-804.61759	-327.92670	101.66783	-773.14874	-398.04842	54.59794	-734.38535	-181.64223	32.72262	-815.43073	-154.14563	59.50935	-752.27627	-220.42160	326.56711	-407.54687	-262.84964	455.38857	-407.59837	-300.52246	344.74109	-405.80718	-268.30265	431.04367	-817.29827	-299.89486	314.19299	-811.47374	-517.53559	578.21632	-443.37954	-410.22398	590.86986	-445.58050	-379.65659	540.07523	-407.94547	-502.35095	463.42205	-432.37135	-386.99230	485.24424	-420.37796	-503.74139	576.22689	-806.51989	-362.78943	586.07042	-806.50849	-492.24806	456.69913	-825.01697	-355.09512	478.79365	-826.82850	-585.92422	603.50833	-503.00814	-777.05819	571.73321	-594.88189	-568.51576	602.67593	-765.04092	-771.25116	566.65030	-697.85001	-697.61824	1098.75123	-644.15060	-646.33870	1047.24156	-458.11677	-613.03308	1060.46741	-798.69077	-559.38678	1016.68830	-596.04308	-552.18525	1012.19317	-647.03965	-703.80228	787.11343	-358.05534	-747.70713	689.54545	-426.83964	-728.52428	700.22101	-339.77662	-586.80529	624.94647	-357.91187	-490.43568	579.05981	-387.07843	-517.87620	548.31542	-372.22802	-661.33480	814.18298	-909.67502	-736.31841	721.49893	-860.20851	-696.57614	732.10214	-929.91243	-556.95079	632.64301	-892.39581	-476.05964	598.29560	-858.28758	-495.93636	564.95790	-863.38104	-636.57021	499.84235	-514.04473	-619.79040	498.91185	-743.79893	-627.50810	510.91319	-538.08486	-617.76060	502.38117	-710.92384	
2	0.01000000	-217.29809	502.34156	-431.81113	-191.00072	435.70066	-414.35456	-324.62394	105.34876	-436.11214	-389.67394	53.03808	-480.27045	-187.44518	37.63672	-398.29291	-153.03597	63.03368	-458.43936	-202.70001	498.62025	-797.96228	-184.64006	399.45852	-804.59356	-327.89365	101.74413	-773.12239	-397.91644	54.73486	-734.31005	-181.61906	32.78704	-815.40093	-154.17448	59.51445	-752.23643	-220.29103	326.58823	-407.51136	-262.80608	455.20938	-407.68664	-300.49693	344.61679	-405.79903	-268.26930	431.12825	-817.28819	-299.86910	314.23604	-811.47287	-517.43094	578.15642	-443.34395	-410.25971	590.88879	-445.46992	-379.60241	540.02066	-407.76496	-502.56950	463.61948	-432.21122	-387.00695	485.09694	-420.41551	-503.78866	576.08791	-806.72854	-362.84523	586.05010	-806.51073	-492.17164	456.89964	-825.15692	-355.03796	478.87701	-826.80989	-585.97132	603.30517	-503.06738	-776.96038	571.84926	-594.89798	-568.49710	602.37428	-764.98413	-771.21298	566.66653	-697.75368	-697.31952	1098.70995	-643.95358	-645.90352	1047.08316	-458.01450	-612.69085	1060.56495	-798.48392	-559.10613	1016.74937	-595.91888	-551.81322	1011.94186	-646.68284	-703.65615	787.06006	-357.90729	-747.47430	689.49984	-426.65915	-728.49133	700.11817	-339.73655	-586.76781	624.94094	-357.75221	-490.39985	579.06958	-386.98526	-517.95123	548.16529	-372.29733	-661.08813	814.48899	-909.76508	-736.22389	721.61569	-860.24209	-696.26247	732.45451	-930.24360	-556.87738	632.74826	-892.34845	-476.02593	598.40414	-858.24861	-495.90813	565.06607	-863.36542	-636.68029	499.73831	-513.99036	-619.89153	498.69407	-743.74341	-627.63157	510.88256	-538.01759	-617.97795	502.17734	-710.77967	
3	0.02000000	-217.91672	502.71639	-432.56552	-190.94984	435.71649	-414.05283	-324.60871	105.26600	-436.14248	-389.66665	52.94252	-480.14691	-187.44071	37.59361	-398.25804	-153.04277	63.04717	-458.39645	-202.60977	498.69576	-797.95474	-184.60113	399.52503	-804.57163	-327.87762	101.80865	-773.10297	-397.88113	54.83184	-734.19490	-181.61339	32.84575	-815.40444	-154.16697	59.47918	-752.13775	-220.33352	326.59048	-407.50629	-262.78062	455.05374	-407.66406	-300.47685	344.43305	-405.77741	-268.20268	431.20924	-817.35232	-299.80944	314.30699	-811.41725	-517.34396	578.08864	-443.31088	-410.20901	590.88674	-445.34921	-379.58145	539.95154	-407.71405	-502.56106	463.61735	-432.17742	-386.94249	485.10267	-420.31441	-503.76524	576.03048	-806.65298	-362.82535	586.04269	-806.40670	-492.11854	456.99477	-825.19208	-354.98132	478.94891	-826.81757	-586.03039	603.01799	-503.12914	-776.94340	571.87651	-594.86762	-568.44771	602.34652	-764.81881	-771.16992	566.73316	-697.74585	-696.97125	1098.72154	-643.78577	-645.53093	1046.98865	-457.89236	-612.34523	1060.66107	-798.20854	-558.79310	1016.75902	-595.74423	-551.54537	1011.75827	-646.52703	-703.50361	786.99332	-357.68995	-747.40506	689.49486	-426.61142	-728.39588	700.09222	-339.62520	-586.71106	624.93341	-357.62925	-490.33081	579.06476	-386.88813	-517.91080	548.13137	-372.27227	-660.88299	814.70057	-909.73733	-736.13174	721.79593	-860.38914	-696.03518	732.70451	-930.36458	-556.80372	632.85862	-892.30450	-475.97687	598.49121	-858.17525	-495.88179	565.14659	-863.34253	-636.77781	499.53046	-514.02557	-619.93411	498.68346	-743.77524	-627.77521	510.81031	-538.09952	-618.08805	502.18009	-710.71787	
4	0.03000000	-218.59948	503.15734	-433.40735	-190.85645	435.84210	-413.51399	-324.57604	105.32271	-436.04940	-389.67168	52.90124	-480.11860	-187.44728	37.55817	-398.22489	-153.02826	63.09889	-458.38334	-202.55058	498.66918	-797.79681	-184.56336	399.56580	-804.54701	-327.87012	101.85482	-773.10044	-397.88608	54.89502	-734.10420	-181.62309	32.89162	-815.39253	-154.12112	59.45982	-752.03401	-220.40399	326.58253	-407.53742	-262.77026	454.94800	-407.59468	-300.47294	344.26576	-405.75125	-268.14302	431.25012	-817.34003	-299.72907	314.38217	-811.34562	-517.33583	578.00525	-443.22550	-410.16542	590.86860	-445.23880	-379.58298	539.80685	-407.78040	-502.45949	463.56817	-432.19420	-386.84273	485.18117	-420.15516	-503.70710	576.04583	-806.49966	-362.76632	586.04653	-806.31964	-492.08869	457.01228	-825.14275	-354.94475	479.01072	-826.81300	-586.07239	602.75268	-503.16821	-776.95395	571.87093	-594.82163	-568.38969	602.47287	-764.61876	-771.11968	566.81996	-697.77896	-696.63160	1098.72995	-643.59856	-645.20263	1046.96136	-457.71768	-611.99014	1060.74485	-797.95159	-558.44499	1016.68139	-595.54438	-551.26831	1011.66262	-646.39188	-703.35666	786.89278	-357.47593	-747.41930	689.50951	-426.63299	-728.25269	700.09853	-339.44278	-586.62406	624.89856	-357.51205	-490.22773	579.03284	-386.78948	-517.82792	548.12812	-372.20053	-660.67997	814.82600	-909.65535	-736.04053	722.03124	-860.58246	-695.87030	732.88795	-930.32953	-556.71535	632.98437	-892.32925	-475.91191	598.53398	-858.08214	-495.84902	565.19950	-863.33013	-636.84109	499.32090	-514.09224	-619.92763	498.79028	-743.83783	-627.89789	510.75436	-538.21925	-618.12467	502.29318	-710.68712	
5	0.04000000	-218.54818	503.10213	-433.34693	-190.80766	435.83651	-413.44054	-324.63720	105.62738	-435.80418	-389.69453	53.02373	-480.28106	-187.46557	37.53705	-398.21200	-153.00171	63.16118	-458.39470	-202.50112	498.65170	-797.70872	-184.53604	399.58400	-804.52595	-327.86022	101.87151	-773.11181	-397.85323	54.92031	-734.09879	-181.62568	32.89663	-815.30244	-154.07915	59.47301	-751.99009	-220.35995	326.57724	-407.54831	-262.77590	454.93690	-407.55474	-300.48408	344.20913	-405.73959	-268.13050	431.23749	-817.16602	-299.68411	314.40456	-811.31186	-517.31205	577.96114	-443.04945	-410.32004	590.90225	-445.12491	-379.56413	539.65226	-407.82738	-502.43998	463.63206	-432.16793	-386.82544	485.15159	-420.13255	-503.67564	576.09343	-806.50770	-362.73279	586.06518	-806.34638	-492.06698	457.01945	-825.09590	-354.93746	479.04800	-826.77884	-586.05292	602.65520	-503.15181	-776.91647	571.88834	-594.80427	-568.37044	602.63209	-764.50588	-771.06403	566.88102	-697.79701	-696.33625	1098.71468	-643.43391	-644.85339	1046.94820	-457.48955	-611.62400	1060.80538	-797.80126	-558.08533	1016.57568	-595.40501	-550.81800	1011.58688	-646.13457	-703.19820	786.83125	-357.28749	-747.34598	689.50306	-426.57310	-728.12097	700.06338	-339.26973	-586.53800	624.83859	-357.40145	-490.13491	578.98502	-386.68102	-517.76400	548.10121	-372.12835	-660.44219	814.93284	-909.62157	-735.94318	722.28420	-860.77557	-695.71407	733.05496	-930.29490	-556.61420	633.10259	-892.43672	-475.84348	598.54846	-858.03978	-495.80294	565.23039	-863.34003	-636.81904	499.24238	-514.13487	-619.88005	498.92204	-743.87904	-627.92442	510.78711	-538.23892	-618.12755	502.40505	-710.64549	
6	0.05000000	-217.85834	502.57698	-432.49790	-190.75555	435.83594	-413.55952	-324.69478	105.91523	-435.68300	-389.71295	53.18948	-480.38933	-187.45766	37.58741	-398.23697	-152.97854	63.18639	-458.45048	-202.48051	498.63510	-797.69416	-184.52765	399.57765	-804.51844	-327.85279	101.84374	-773.12368	-397.79047	54.89071	-734.17117	-181.62060	32.84335	-815.22112	-154.08563	59.47135	-752.03861	-220.26952	326.58758	-407.50649	-262.79068	455.01963	-407.52505	-300.48083	344.26088	-405.74919	-268.14118	431.20635	-816.98537	-299.70071	314.35374	-811.29258	-517.22418	577.97056	-442.89389	-410.55976	590.96708	-445.03192	-379.50293	539.62057	-407.78490	-502.46998	463.72099	-432.12549	-386.88272	485.02815	-420.24509	-503.65767	576.17591	-806.56446	-362.71234	586.11230	-806.39521	-492.04572	457.01537	-825.08442	-354.93852	479.03387	-826.76206	-585.96274	602.72803	-503.08183	-776.87596	571.91827	-594.83940	-568.40186	602.86960	-764.48763	-771.02446	566.92510	-697.85589	-696.01673	1098.73173	-643.37139	-644.45346	1046.89981	-457.25423	-611.26392	1060.82968	-797.68114	-557.73042	1016.52541	-595.35690	-550.39262	1011.52619	-645.96264	-703.00606	786.87845	-357.04769	-747.21134	689.50119	-426.43276	-728.01948	700.01621	-339.17433	-586.48286	624.79731	-357.34267	-490.08069	578.92822	-386.58401	-517.69281	548.11431	-372.06364	-660.20171	815.06113	-909.64836	-735.82894	722.52309	-861.03638	-695.56179	733.17077	-930.29567	-556.52385	633.16744	-892.54130	-475.77263	598.58848	-858.10488	-495.74656	565.22562	-863.35374	-636.72557	499.28851	-514.18890	-619.79500	499.11401	-743.93378	-627.87420	510.90539	-538.19069	-618.07952	502.54744	-710.62740	
